<svg width="15" height="15" viewBox="0 0 15 15" fill="none" xmlns="http://www.w3.org/2000/svg">
<path d="M4.99951 3.59375C4.74326 3.59375 4.53076 3.38125 4.53076 3.125V1.25C4.53076 0.99375 4.74326 0.78125 4.99951 0.78125C5.25576 0.78125 5.46826 0.99375 5.46826 1.25V3.125C5.46826 3.38125 5.25576 3.59375 4.99951 3.59375Z" fill="white"/>
<path d="M10.0005 3.59375C9.74424 3.59375 9.53174 3.38125 9.53174 3.125V1.25C9.53174 0.99375 9.74424 0.78125 10.0005 0.78125C10.2567 0.78125 10.4692 0.99375 10.4692 1.25V3.125C10.4692 3.38125 10.2567 3.59375 10.0005 3.59375Z" fill="white"/>
<path d="M5.3125 9.06294C5.23125 9.06294 5.15 9.0442 5.075 9.01295C4.99375 8.9817 4.93125 8.93793 4.86875 8.88168C4.75625 8.76293 4.6875 8.60669 4.6875 8.43794C4.6875 8.35669 4.70625 8.27544 4.7375 8.20044C4.76875 8.12544 4.8125 8.05669 4.86875 7.99419C4.93125 7.93794 4.99375 7.89418 5.075 7.86293C5.3 7.76918 5.58125 7.81919 5.75625 7.99419C5.86875 8.11294 5.9375 8.27544 5.9375 8.43794C5.9375 8.47544 5.93125 8.5192 5.925 8.56295C5.91197 8.64112 5.87831 8.71551 5.83517 8.78199C5.83388 8.78397 5.83257 8.78595 5.83125 8.78794C5.8125 8.81919 5.78125 8.85043 5.75625 8.88168C5.6375 8.99418 5.475 9.06294 5.3125 9.06294Z" fill="white"/>
<path d="M7.49951 9.06279C7.41826 9.06279 7.33701 9.04405 7.26201 9.0128C7.18076 8.98155 7.11826 8.93778 7.05576 8.88153C6.94326 8.76278 6.87451 8.60654 6.87451 8.43779C6.87451 8.35654 6.89326 8.27528 6.92451 8.20028C6.95576 8.12528 6.99951 8.05654 7.05576 7.99404C7.11826 7.93779 7.18076 7.89403 7.26201 7.86278C7.48701 7.76278 7.76826 7.81904 7.94326 7.99404C8.05576 8.11279 8.12451 8.27529 8.12451 8.43779C8.12451 8.47529 8.11826 8.51904 8.11201 8.56279C8.09898 8.64097 8.06532 8.71536 8.02218 8.78183C8.02089 8.78382 8.01959 8.7858 8.01826 8.78779C7.99951 8.81904 7.96826 8.85028 7.94326 8.88153C7.82451 8.99403 7.66201 9.06279 7.49951 9.06279Z" fill="white"/>
<path d="M9.68799 9.06279C9.60674 9.06279 9.52549 9.04405 9.45049 9.0128C9.4092 8.99691 9.37275 8.9778 9.33868 8.95546C9.27187 8.91164 9.21915 8.85018 9.16924 8.78779C9.16791 8.7858 9.16661 8.78382 9.16532 8.78183C9.12218 8.71536 9.08852 8.64097 9.07549 8.56279C9.06924 8.51904 9.06299 8.47529 9.06299 8.43779C9.06299 8.27529 9.13174 8.11279 9.24424 7.99404C9.30674 7.93779 9.36924 7.89403 9.45049 7.86278C9.68174 7.76278 9.95674 7.81904 10.1317 7.99404C10.2442 8.11279 10.313 8.27529 10.313 8.43779C10.313 8.47529 10.3067 8.51904 10.3005 8.56279C10.2875 8.64097 10.2538 8.71536 10.2107 8.78183C10.2094 8.78382 10.2081 8.7858 10.2067 8.78779C10.188 8.81904 10.1567 8.85028 10.1317 8.88153C10.013 8.99403 9.85049 9.06279 9.68799 9.06279Z" fill="white"/>
<path d="M5.3125 11.25C5.23125 11.25 5.15 11.2313 5.075 11.2C5 11.1688 4.93125 11.125 4.86875 11.0687C4.75625 10.95 4.6875 10.7875 4.6875 10.625C4.6875 10.5437 4.70625 10.4625 4.7375 10.3875C4.76875 10.3062 4.8125 10.2375 4.86875 10.1813C5.1 9.95 5.525 9.95 5.75625 10.1813C5.86875 10.3 5.9375 10.4625 5.9375 10.625C5.9375 10.7875 5.86875 10.95 5.75625 11.0687C5.6375 11.1812 5.475 11.25 5.3125 11.25Z" fill="white"/>
<path d="M7.49951 11.25C7.33701 11.25 7.17451 11.1812 7.05576 11.0687C6.94326 10.95 6.87451 10.7875 6.87451 10.625C6.87451 10.5437 6.89326 10.4625 6.92451 10.3875C6.95576 10.3062 6.99951 10.2375 7.05576 10.1813C7.28701 9.95 7.71201 9.95 7.94326 10.1813C7.99951 10.2375 8.04326 10.3062 8.07451 10.3875C8.10576 10.4625 8.12451 10.5437 8.12451 10.625C8.12451 10.7875 8.05576 10.95 7.94326 11.0687C7.82451 11.1812 7.66201 11.25 7.49951 11.25Z" fill="white"/>
<path d="M9.68799 11.2496C9.52549 11.2496 9.36299 11.1808 9.24424 11.0683C9.18799 11.0121 9.14424 10.9433 9.11299 10.8621C9.08174 10.7871 9.06299 10.7058 9.06299 10.6246C9.06299 10.5433 9.08174 10.4621 9.11299 10.3871C9.14424 10.3058 9.18799 10.2371 9.24424 10.1808C9.38799 10.0371 9.60674 9.96832 9.80674 10.0121C9.88919 10.0239 9.96869 10.0596 10.038 10.1058C10.0692 10.1246 10.1005 10.1558 10.1317 10.1808C10.2442 10.2996 10.313 10.4621 10.313 10.6246C10.313 10.7871 10.2442 10.9496 10.1317 11.0683C10.013 11.1808 9.85049 11.2496 9.68799 11.2496Z" fill="white"/>
<path d="M12.812 6.15039H2.18701C1.93076 6.15039 1.71826 5.93789 1.71826 5.68164C1.71826 5.42539 1.93076 5.21289 2.18701 5.21289H12.812C13.0683 5.21289 13.2808 5.42539 13.2808 5.68164C13.2808 5.93789 13.0683 6.15039 12.812 6.15039Z" fill="white"/>
<path d="M10 14.2188H5C2.71875 14.2188 1.40625 12.9062 1.40625 10.625V5.3125C1.40625 3.03125 2.71875 1.71875 5 1.71875H10C12.2812 1.71875 13.5938 3.03125 13.5938 5.3125V10.625C13.5938 12.9062 12.2812 14.2188 10 14.2188ZM5 2.65625C3.2125 2.65625 2.34375 3.525 2.34375 5.3125V10.625C2.34375 12.4125 3.2125 13.2812 5 13.2812H10C11.7875 13.2812 12.6562 12.4125 12.6562 10.625V5.3125C12.6562 3.525 11.7875 2.65625 10 2.65625H5Z" fill="white"/>
</svg>
