<svg width="16" height="16" viewBox="0 0 16 16" fill="none" xmlns="http://www.w3.org/2000/svg">
<path d="M5.49951 4.09399C5.24326 4.09399 5.03076 3.88149 5.03076 3.62524V1.75024C5.03076 1.49399 5.24326 1.28149 5.49951 1.28149C5.75576 1.28149 5.96826 1.49399 5.96826 1.75024V3.62524C5.96826 3.88149 5.75576 4.09399 5.49951 4.09399Z" fill="white"/>
<path d="M10.5005 4.09399C10.2442 4.09399 10.0317 3.88149 10.0317 3.62524V1.75024C10.0317 1.49399 10.2442 1.28149 10.5005 1.28149C10.7567 1.28149 10.9692 1.49399 10.9692 1.75024V3.62524C10.9692 3.88149 10.7567 4.09399 10.5005 4.09399Z" fill="white"/>
<path d="M5.8125 9.56294C5.73125 9.56294 5.65 9.5442 5.575 9.51295C5.49375 9.4817 5.43125 9.43793 5.36875 9.38168C5.25625 9.26293 5.1875 9.10669 5.1875 8.93794C5.1875 8.85669 5.20625 8.77544 5.2375 8.70044C5.26875 8.62544 5.3125 8.55669 5.36875 8.49419C5.43125 8.43794 5.49375 8.39418 5.575 8.36293C5.8 8.26918 6.08125 8.31919 6.25625 8.49419C6.36875 8.61294 6.4375 8.77544 6.4375 8.93794C6.4375 8.97544 6.43125 9.0192 6.425 9.06295C6.41875 9.10045 6.40625 9.13794 6.3875 9.17544C6.375 9.21294 6.35625 9.25044 6.33125 9.28794C6.3125 9.31919 6.28125 9.35043 6.25625 9.38168C6.1375 9.49418 5.975 9.56294 5.8125 9.56294Z" fill="white"/>
<path d="M7.99951 9.56279C7.91826 9.56279 7.83701 9.54405 7.76201 9.5128C7.68076 9.48155 7.61826 9.43778 7.55576 9.38153C7.44326 9.26278 7.37451 9.10654 7.37451 8.93779C7.37451 8.85654 7.39326 8.77528 7.42451 8.70028C7.45576 8.62528 7.49951 8.55654 7.55576 8.49404C7.61826 8.43779 7.68076 8.39403 7.76201 8.36278C7.98701 8.26278 8.26826 8.31904 8.44326 8.49404C8.55576 8.61279 8.62451 8.77529 8.62451 8.93779C8.62451 8.97529 8.61826 9.01904 8.61201 9.06279C8.60576 9.10029 8.59326 9.13779 8.57451 9.17529C8.56201 9.21279 8.54326 9.25029 8.51826 9.28779C8.49951 9.31904 8.46826 9.35028 8.44326 9.38153C8.32451 9.49403 8.16201 9.56279 7.99951 9.56279Z" fill="white"/>
<path d="M10.188 9.56279C10.1067 9.56279 10.0255 9.54405 9.95049 9.5128C9.86924 9.48155 9.80674 9.43778 9.74424 9.38153C9.71924 9.35028 9.69424 9.31904 9.66924 9.28779C9.64424 9.25029 9.62549 9.21279 9.61299 9.17529C9.59424 9.13779 9.58174 9.10029 9.57549 9.06279C9.56924 9.01904 9.56299 8.97529 9.56299 8.93779C9.56299 8.77529 9.63174 8.61279 9.74424 8.49404C9.80674 8.43779 9.86924 8.39403 9.95049 8.36278C10.1817 8.26278 10.4567 8.31904 10.6317 8.49404C10.7442 8.61279 10.813 8.77529 10.813 8.93779C10.813 8.97529 10.8067 9.01904 10.8005 9.06279C10.7942 9.10029 10.7817 9.13779 10.763 9.17529C10.7505 9.21279 10.7317 9.25029 10.7067 9.28779C10.688 9.31904 10.6567 9.35028 10.6317 9.38153C10.513 9.49403 10.3505 9.56279 10.188 9.56279Z" fill="white"/>
<path d="M5.8125 11.75C5.73125 11.75 5.65 11.7313 5.575 11.7C5.5 11.6688 5.43125 11.625 5.36875 11.5687C5.25625 11.45 5.1875 11.2875 5.1875 11.125C5.1875 11.0437 5.20625 10.9625 5.2375 10.8875C5.26875 10.8062 5.3125 10.7375 5.36875 10.6813C5.6 10.45 6.025 10.45 6.25625 10.6813C6.36875 10.8 6.4375 10.9625 6.4375 11.125C6.4375 11.2875 6.36875 11.45 6.25625 11.5687C6.1375 11.6812 5.975 11.75 5.8125 11.75Z" fill="white"/>
<path d="M7.99951 11.75C7.83701 11.75 7.67451 11.6812 7.55576 11.5687C7.44326 11.45 7.37451 11.2875 7.37451 11.125C7.37451 11.0437 7.39326 10.9625 7.42451 10.8875C7.45576 10.8062 7.49951 10.7375 7.55576 10.6813C7.78701 10.45 8.21201 10.45 8.44326 10.6813C8.49951 10.7375 8.54326 10.8062 8.57451 10.8875C8.60576 10.9625 8.62451 11.0437 8.62451 11.125C8.62451 11.2875 8.55576 11.45 8.44326 11.5687C8.32451 11.6812 8.16201 11.75 7.99951 11.75Z" fill="white"/>
<path d="M10.188 11.7496C10.0255 11.7496 9.86299 11.6808 9.74424 11.5683C9.68799 11.5121 9.64424 11.4433 9.61299 11.3621C9.58174 11.2871 9.56299 11.2058 9.56299 11.1246C9.56299 11.0433 9.58174 10.9621 9.61299 10.8871C9.64424 10.8058 9.68799 10.7371 9.74424 10.6808C9.88799 10.5371 10.1067 10.4683 10.3067 10.5121C10.3505 10.5183 10.388 10.5308 10.4255 10.5496C10.463 10.5621 10.5005 10.5808 10.538 10.6058C10.5692 10.6246 10.6005 10.6558 10.6317 10.6808C10.7442 10.7996 10.813 10.9621 10.813 11.1246C10.813 11.2871 10.7442 11.4496 10.6317 11.5683C10.513 11.6808 10.3505 11.7496 10.188 11.7496Z" fill="white"/>
<path d="M13.312 6.65015H2.68701C2.43076 6.65015 2.21826 6.43765 2.21826 6.1814C2.21826 5.92515 2.43076 5.71265 2.68701 5.71265H13.312C13.5683 5.71265 13.7808 5.92515 13.7808 6.1814C13.7808 6.43765 13.5683 6.65015 13.312 6.65015Z" fill="white"/>
<path d="M10.5 14.719H5.5C3.21875 14.719 1.90625 13.4065 1.90625 11.1252V5.81274C1.90625 3.53149 3.21875 2.21899 5.5 2.21899H10.5C12.7812 2.21899 14.0938 3.53149 14.0938 5.81274V11.1252C14.0938 13.4065 12.7812 14.719 10.5 14.719ZM5.5 3.15649C3.7125 3.15649 2.84375 4.02524 2.84375 5.81274V11.1252C2.84375 12.9127 3.7125 13.7815 5.5 13.7815H10.5C12.2875 13.7815 13.1562 12.9127 13.1562 11.1252V5.81274C13.1562 4.02524 12.2875 3.15649 10.5 3.15649H5.5Z" fill="white"/>
</svg>
