<svg width="18" height="17" viewBox="0 0 18 17" fill="none" xmlns="http://www.w3.org/2000/svg">
<path d="M11.5573 0H5.77867C4.24589 0.00253753 2.77666 0.646079 1.69332 1.78943C0.60998 2.93278 0.00100706 4.48257 6.08231e-06 6.09877V7.70871C-0.00175076 8.98518 0.377125 10.2299 1.08305 11.2669C1.78898 12.3039 2.78622 13.0806 3.93374 13.4872C3.64064 14.0215 3.24075 14.8544 2.66592 16.1553C2.6171 16.2654 2.60151 16.3886 2.62126 16.5083C2.64101 16.6281 2.69514 16.7385 2.77634 16.8247C2.85754 16.911 2.9619 16.9688 3.0753 16.9905C3.18869 17.0122 3.30567 16.9966 3.4104 16.9459L9.9169 13.8075H11.5573C13.0901 13.8049 14.5594 13.1614 15.6427 12.018C16.726 10.8747 17.335 9.32491 17.336 7.70871V6.09877C17.335 4.48257 16.726 2.93278 15.6427 1.78943C14.5594 0.646079 13.0901 0.00253753 11.5573 0ZM16.2098 7.70871C16.209 9.01003 15.7188 10.2579 14.8466 11.1786C13.9744 12.0993 12.7915 12.6177 11.5573 12.62H9.7942C9.7134 12.6201 9.63357 12.6386 9.56018 12.6743L4.36619 15.1794C4.60465 14.6486 4.87455 14.1341 5.1743 13.639C5.27232 13.5764 5.34991 13.4837 5.39671 13.3734C5.44351 13.2631 5.4573 13.1404 5.43623 13.0216C5.41517 12.9028 5.36025 12.7936 5.2788 12.7086C5.19736 12.6236 5.09327 12.5667 4.98041 12.5457C3.90039 12.3478 2.92141 11.7539 2.21633 10.8689C1.51125 9.98385 1.12542 8.86458 1.12696 7.70871V6.09877C1.12776 4.79744 1.61802 3.54958 2.4902 2.62888C3.36238 1.70818 4.54528 1.18982 5.77943 1.18749H11.5581C12.7923 1.18982 13.9751 1.70818 14.8473 2.62888C15.7195 3.54958 16.2098 4.79744 16.2106 6.09877V7.70871H16.2098Z" fill="white"/>
<path d="M5.54714 7.03956C5.54729 7.29942 5.47436 7.55348 5.33755 7.76961C5.20075 7.98575 5.00622 8.15425 4.77858 8.2538C4.55094 8.35335 4.30042 8.37947 4.05869 8.32888C3.81697 8.27828 3.59491 8.15323 3.42059 7.96954C3.24628 7.78585 3.12755 7.55178 3.07941 7.29693C3.03128 7.04208 3.05591 6.77791 3.15019 6.53782C3.24446 6.29773 3.40415 6.09252 3.60905 5.94814C3.81394 5.80376 4.05485 5.72668 4.30129 5.72668C4.63158 5.72668 4.94834 5.86498 5.18197 6.11117C5.41559 6.35736 5.54694 6.6913 5.54714 7.03956Z" fill="white"/>
<path d="M14.2796 7.03956C14.2797 7.29942 14.2068 7.55348 14.07 7.76961C13.9332 7.98575 13.7386 8.15425 13.511 8.2538C13.2834 8.35335 13.0329 8.37947 12.7911 8.32888C12.5494 8.27828 12.3273 8.15323 12.153 7.96954C11.9787 7.78585 11.86 7.55178 11.8118 7.29693C11.7637 7.04208 11.7883 6.77791 11.8826 6.53782C11.9769 6.29773 12.1366 6.09252 12.3415 5.94814C12.5464 5.80376 12.7873 5.72668 13.0337 5.72668C13.364 5.72668 13.6808 5.86498 13.9144 6.11117C14.148 6.35736 14.2794 6.6913 14.2796 7.03956Z" fill="white"/>
<path d="M9.91309 7.03956C9.91324 7.29942 9.84031 7.55348 9.70351 7.76961C9.5667 7.98575 9.37216 8.15425 9.14452 8.2538C8.91689 8.35335 8.66638 8.37947 8.42465 8.32888C8.18293 8.27828 7.96087 8.15323 7.78655 7.96954C7.61224 7.78585 7.49352 7.55178 7.44539 7.29693C7.39725 7.04208 7.42186 6.77791 7.51614 6.53782C7.61041 6.29773 7.7701 6.09252 7.97499 5.94814C8.17989 5.80376 8.42081 5.72668 8.66725 5.72668C8.99754 5.72668 9.31431 5.86498 9.54794 6.11117C9.78156 6.35736 9.91289 6.6913 9.91309 7.03956Z" fill="white"/>
</svg>
